<mxfile host="app.diagrams.net" modified="2024-01-01T16:31:35.328Z" agent="Mozilla/5.0 (Windows NT 10.0; Win64; x64) AppleWebKit/537.36 (KHTML, like Gecko) Chrome/120.0.0.0 Safari/537.36" version="22.1.16" etag="3CG-qf6HcL0z7ufnbrcE" type="github">
  <diagram name="Trang-1" id="SpeuMKGRFvlDh2R2jT92">
    <mxGraphModel>
      <root>
        <mxCell id="0" />
        <mxCell id="1" parent="0" />
      </root>
    </mxGraphModel>
  </diagram>
</mxfile>
